<?xml version="1.0" standalone="no"?>
<!DOCTYPE svg PUBLIC "-//W3C//DTD SVG 1.1//EN" "http://www.w3.org/Graphics/SVG/1.1/DTD/svg11.dtd" >
<svg xmlns="http://www.w3.org/2000/svg">
<metadata></metadata>
<defs>
<font id="djb_this_momentregular" horiz-adv-x="1014" >
<font-face units-per-em="2048" ascent="1638" descent="-410" />
<missing-glyph horiz-adv-x="936" />
<glyph horiz-adv-x="0" />
<glyph unicode="&#xd;" horiz-adv-x="508" />
<glyph unicode=" "  horiz-adv-x="936" />
<glyph unicode="&#x09;" horiz-adv-x="936" />
<glyph unicode="&#xa0;" horiz-adv-x="936" />
<glyph unicode="!" horiz-adv-x="768" d="M96 56q66 168 184 168q30 0 40 -72q0 -152 -176 -152q-48 19 -48 56zM264 496q136 434 480 1112q77 114 152 176h24q32 -11 32 -72q0 -47 -144 -248q-296 -596 -296 -648v-48l8 -88l-72 -144q-36 -112 -104 -112q-80 18 -80 72z" />
<glyph unicode="&#x22;" horiz-adv-x="672" d="M-9 1211v24q0 176 112 240h40l24 -24q-56 -103 -56 -312q0 -21 120 -96v-24q0 -25 -88 -48q-106 0 -152 240zM335 1267q0 216 104 216h40q48 -22 48 -96l-32 -136v-56q0 -75 144 -192v-32l-64 -16q-240 130 -240 312z" />
<glyph unicode="#" horiz-adv-x="1770" d="M0 408q0 120 552 120q87 0 152 216v16l-152 -56q-112 34 -112 112q0 96 224 96q176 0 176 168q49 131 88 144h24q61 -48 80 -88v-16l-56 -160v-8h232q128 0 128 80q3 27 56 157.5t123 130.5q80 -31 80 -96q0 -21 -131 -232l-16 -56h8l128 8h64q96 0 96 -32 q-34 -72 -144 -72h-112q-127 0 -224 -312q48 -24 168 -24h72l112 16q34 -8 56 -40q0 -80 -392 -80l-96 -16q0 -189 -112 -328l-40 -8q-56 14 -56 72q0 35 80 240v8q0 40 -356 22l-132 -230q-109 -154 -136 -160h-16q-48 28 -48 72v16l181 304h-117q-214 -64 -336 -64 q-96 16 -96 80zM752 544l256 -8h112q46 136 128 288v16q-376 -29 -376 -96q-82 -138 -120 -176v-24z" />
<glyph unicode="$" horiz-adv-x="1121" d="M9 232q20 144 104 144l8 -24l-16 -160v-16q0 -43 176 -96q46 121 88 344q0 20 -144 80q-104 52 -104 144q0 162 416 328q218 536 360 536q33 0 80 -72v-16l-216 -312l-56 -64v-24h200q182 0 208 -128v-8l-32 -24l-288 8h-16q-192 0 -192 -88l-8 -8l-64 -208 q20 -25 239.5 -132.5t232.5 -163.5q0 -192 -480 -288q-56 -21 -136 -56q-144 -416 -184 -664h-8q-32 13 -32 56l96 616q-26 28 -168 80q-64 66 -64 216zM297 632q46 -40 80 -40h8q36 34 64 184l-8 8h-8q-136 -90 -136 -152zM385 104l8 -8h8q392 63 408 176q0 60 -344 144v-8 z" />
<glyph unicode="%" horiz-adv-x="1327" d="M128 0q-128 0 16 224q30 70 344 328l555 655q56 36 56 80h-8q-288 -23 -288 -96q-118 -298 -256 -384q-153 -80 -192 -80h-24q-120 0 -120 128q48 209 168 352v16q-72 82 -72 168q0 155 224 208q75 -2 224 -112q136 0 136 -72l24 -16h24l368 72q40 0 64 -40v-16 q0 -67 -272 -328l-355 -423v-32q41 0 126 -121t-49 -245.5t-429 -249.5l-208 -16h-56zM339 871h16q105 0 256 176l64 120v16l-16 16h-24q-224 0 -296 -320v-8zM467 1367l16 -16q47 18 80 56v8l-8 8v8q-88 -14 -88 -40v-24zM512 224h24q228 136 200 192q-140 0 -216 -72 l32 -40v-16q-40 -42 -40 -64z" />
<glyph unicode="&#x26;" horiz-adv-x="1227" d="M26 264q158 224 304 224q0 11 120 40v24h-80q-156 0 -184 136v16q0 152 768 432q45 34 160 192l40 8h8q88 -59 88 -96q-4 -53 -216 -248l-192 -232l-16 -48l24 -16h48q88 0 88 -72q0 -94 -320 -152q-295 -85 -440 -192v-8q190 -168 384 -168h48q112 136 152 136l120 -96 q0 -50 -155.5 -167t-244.5 -192t-136 -193l-48 -48h-24q-13 0 -10.5 48t10.5 120l144 184l56 64v24q-164 0 -432 192zM378 712q11 -32 72 -32h224l56 8v24q-144 24 -144 88h8l-8 24q-208 -74 -208 -112z" />
<glyph unicode="'" horiz-adv-x="412" d="M251 843q36 198 269 385q38 -48 24 -104l-237 -313q-56 14 -56 32z" />
<glyph unicode="(" horiz-adv-x="718" d="M16 286.5q-34 342.5 158 849.5q277 568 488 568q104 -27 104 -96v-16q-172 -39 -272 -160q-132 -184 -262.5 -517t-121.5 -587q31 -414 256 -456l80 -24l80 8q56 -8 56 -24q0 -50 -216 -64q-167 0 -241.5 88t-108.5 430.5z" />
<glyph unicode=")" horiz-adv-x="758" d="M74 -285q496 619 496 1032v40q0 453 -280 800q0 27 56 36t176 -124q159 -288 176 -824q0 -429 -568 -952l-32 -16h-24v8z" />
<glyph unicode="*" horiz-adv-x="1117" d="M92 984q41 120 136 120q204 48 336 48q201 12 366 36l32 -8v-8q0 -101 -254 -132l-536 -112q-40 0 -80 56zM188 1357q63 30 98 10l414 -358q325 -221 276 -309l-4 -7l-32 8q-132 102 -421 280q-115 64 -270 205q-83 46 -61 171zM407 652q24 165 71 336q0 132 49 336 q0 95 121 136q56 -40 56 -80l-113 -537q-66 -223 -168 -223h-8z" />
<glyph unicode="+" horiz-adv-x="1117" d="M35 472q41 120 136 120q204 48 336 48q339 16 504 40l32 -8v-8q0 -101 -392 -136l-536 -112q-40 0 -80 56zM381 -29q24 165 40 504q0 132 48 336q0 95 120 136q56 -40 56 -80l-112 -536q-35 -392 -136 -392h-8z" />
<glyph unicode="," horiz-adv-x="557" d="M74 -323l128 104l77 143l24 88v80q0 168 72 168q112 0 112 -128q0 -274 -293 -447l-80 -32h-24l-16 16v8z" />
<glyph unicode="-" horiz-adv-x="1043" d="M4 502q41 120 136 120q204 48 336 48q339 16 504 40l32 -8v-8q0 -101 -584 -160q-56 -24 -344 -88q-40 0 -80 56z" />
<glyph unicode="." horiz-adv-x="557" d="M184 89q0 101 208 128q48 -20 48 -56q-55 -144 -120 -144h-8q-128 11 -128 72z" />
<glyph unicode="/" horiz-adv-x="1003" d="M18 -55q0 47 586 1277q235 432 296 432q88 -26 88 -48v-16q-162 -199 -254 -361t-296 -627t-232 -534.5t-124 -186.5h-16q-34 19 -48 64z" />
<glyph unicode="0" horiz-adv-x="1098" d="M0 344q0 152 200 576h-8q-33 -7 -112 -96l-8 8v8q0 154 432 400q135 40 200 40q221 0 320 -280q16 -35 16 -128v-208q0 -237 -320 -472q-352 -192 -480 -192q-150 0 -216 184q-24 58 -24 160zM136 280q33 -120 104 -120h80q174 13 528 320q64 148 64 400v16 q-61 224 -168 224l-16 24q-320 -46 -320 -120q-272 -464 -272 -744z" />
<glyph unicode="1" horiz-adv-x="473" d="M0 80q0 147 216 672q40 119 56 336q40 56 96 56q42 0 64 -40q0 -136 -232 -800q-48 -141 -48 -224v-40q0 -17 -64 -40q-53 0 -88 80z" />
<glyph unicode="2" horiz-adv-x="1159" d="M0 696v32q188 184 320 208q294 104 448 104q208 -28 208 -160h8q0 -168 -584 -656l-40 -48v-16l112 -8l704 56l40 -8v-24q0 -64 -640 -160l-192 -16q-264 24 -264 128v8q45 88 312 280q16 0 96 104q171 117 280 296l8 48v8q0 26 -96 32q-236 0 -616 -240q-8 -24 -48 -24z " />
<glyph unicode="3" horiz-adv-x="1172" d="M0 168q0 71 80 128q72 -35 72 -64l-16 -32q0 -48 112 -48h96q584 85 584 200q0 58 -136 104q0 24 -176 64q-104 57 -160 144v24q19 51 456 304v16q-134 0 -552 -120h-16l-40 56v24q103 109 472 168l176 16q138 0 200 -104q-12 -119 -424 -328q-40 -37 -40 -56 q342 -174 360 -288q0 -193 -336 -288q-239 -88 -456 -88q-248 34 -248 160z" />
<glyph unicode="4" horiz-adv-x="1228" d="M0 520q0 31 128 160q40 77 280 368q115 216 168 216q54 0 80 -104q-43 -75 -344 -456v-16h8q392 34 392 104l136 272q137 225 192 232q88 -14 88 -48q0 -42 -168 -272l-128 -232q0 -18 360 -64l8 -40q-11 -32 -72 -32h-240q-72 -5 -152 -40q-139 -262 -208 -536l-48 -32 q-40 0 -40 72q0 160 160 512h-8q-161 -27 -472 -136l-40 -8q-80 8 -80 80z" />
<glyph unicode="5" horiz-adv-x="1306" d="M0 120q0 53 48 88q132 -137 544 56q208 123 208 216q-37 32 -112 32q-182 0 -600 -112q-56 0 -72 88q0 71 224 224q192 180 192 256q34 62 152 88q0 30 800 104l16 -24q0 -51 -576 -184q-262 -77 -424 -272q-32 -16 -32 -40l-8 -8l8 -8l336 32h32q216 0 216 -168 q0 -217 -512 -448q-160 -40 -248 -40h-40q-152 0 -152 120z" />
<glyph unicode="6" horiz-adv-x="1180" d="M0 120q89 296 200 461.5t384 466.5q178 214 264 240q32 -24 72 -24v-16q-413 -458 -656 -816v-16h8q340 276 552 280q272 -22 272 -136l8 -48q0 -177 -744 -432q-87 -48 -272 -80q-80 0 -88 120zM152 176h40q752 227 752 336v8q-5 24 -64 24h-40q-275 0 -616 -336 q-72 -8 -72 -24v-8z" />
<glyph unicode="7" horiz-adv-x="1137" d="M24 -13q165 188 220 275t200 292t379 447v16h-192q-184 0 -547 -58q-40 11 -40 56v24q0 62 160 80l299 42l248 -8h216q120 0 144 -72q0 -35 -280 -280l-279 -358q-256 -365 -464 -504h-32l-32 32v16z" />
<glyph unicode="8" horiz-adv-x="1115" d="M0 168v24q0 108 88 256q0 18 96 104v32q0 20 -112 200l-16 104q0 299 576 416l32 8q128 -20 128 -112q0 -132 -328 -208l-8 8v8q123 103 128 136l-8 8h-8q-352 -97 -352 -240v-32q0 -106 120 -176q32 0 192 120q106 68 312 168q164 97 256 184q21 0 32 -56 q-48 -132 -344 -280q-304 -184 -328 -216l-8 -32v-24q104 -202 104 -256l8 -48q0 -112 -248 -248l-112 -16h-40q-123 0 -160 168zM152 200q13 -48 56 -48h8q208 29 208 136q-60 176 -128 176h-8q-53 0 -72 -88q-36 0 -64 -176z" />
<glyph unicode="9" d="M51.5 891q-51.5 219 532.5 405l88 8q216 -37 216 -208q0 -136 -104 -136l-136 -80v-8h8l216 72q104 -13 104 -96q0 -57 -128 -88q-444 -311 -664 -744l-48 -16q-48 28 -48 72q0 89 200 336q88 120 256 296l-8 8q-132 -40 -232 -40h-32q-169 0 -220.5 219zM176 896 q0 -64 112 -80h40l184 16v16l-32 48q2 42 176 160l48 64v8l-16 16h-24q-314 0 -472 -192z" />
<glyph unicode=":" horiz-adv-x="557" d="M164 177q0 101 208 128q48 -20 48 -56q-55 -144 -120 -144h-8q-128 11 -128 72zM213 702v8q0 98 128 248h16v8q80 -42 80 -120q-90 -192 -136 -192l-48 -8q-40 11 -40 56z" />
<glyph unicode=";" horiz-adv-x="557" d="M-182 -516l368 432q64 103 64 144h-8l-56 -8l-8 8v24q0 122 176 184h8q84 -33 88 -56q0 -180 -168 -400q-363 -368 -424 -368q-40 10 -40 24v16zM218 588q61 232 160 232q88 0 88 -136v-16q0 -38 -48 -64q-16 -80 -144 -80q-50 0 -56 64z" />
<glyph unicode="&#x3c;" horiz-adv-x="1124" d="M0 368q0 144 200 144q123 0 744 240h24q50 0 88 -48v-16q-28 -62 -336 -152q-64 -37 -152 -48q-22 -21 -232 -96l-8 -8v-8q59 -65 488 -264q88 -65 88 -80v-8l-88 -24q-32 8 -40 32q-171 0 -728 272q-40 26 -40 64h-8z" />
<glyph unicode="=" horiz-adv-x="1102" d="M39 368v32q38 56 104 56q0 -32 464 -32l416 16l24 -8v-24q-51 -125 -920 -144h-16q-72 0 -72 104zM221 664q0 120 144 120q233 0 584 -112v-16q0 -80 -136 -80h-48q-78 32 -528 64z" />
<glyph unicode="&#x3e;" horiz-adv-x="1284" d="M0 984q0 46 112 56q38 0 368 -224q475 -296 632 -296l32 8q72 -27 72 -104q0 -125 -240 -160q-162 -53 -504 -216l-184 -48q-72 18 -72 40v16q1 17 192 80q469 235 472 288l-464 264q-408 192 -408 272z" />
<glyph unicode="?" horiz-adv-x="1132" d="M156 1200q0 176 584 176q376 0 376 -152q0 -136 -464 -416q-111 -60 -208 -152v-16q227 -56 488 -144l8 -8v-24q-18 -40 -80 -40h-8q-616 63 -616 184l-8 24q0 117 424 328q158 94 280 232v24l-120 8h-152q-263 0 -464 -72q-40 13 -40 48zM508 160q0 56 88 80 q90 0 144 -104q0 -64 -136 -136h-8q-88 48 -88 160z" />
<glyph unicode="@" horiz-adv-x="2187" d="M-9 -43q0 312 472 720q63 18 206.5 141t665.5 283q372 0 536 -224q91 -50 200 -432q0 -308 -216 -408q-162 -56 -256 -56h-72q-166 0 -312 96h-40q-166 -48 -216 -48q-128 16 -128 128q0 240 528 504l96 16q160 0 160 -160q0 -267 -144 -368v-24h112q344 29 344 184 q16 0 16 64q-20 34 -40 200q-154 384 -456 384h-192q-138 0 -528 -216q-624 -444 -624 -808v-80q0 -159 264 -224q57 -24 200 -24h136q205 0 528 56h24q37 29 296 104q54 49 328 128l8 -8v-8q-602 -376 -1312 -376q-428 0 -528 232q-24 32 -56 224zM999 181h24q99 0 208 152 q140 104 208 104l40 -8v32q0 43 -32 56h-120q-328 -235 -328 -328v-8z" />
<glyph unicode="A" horiz-adv-x="1225" d="M0 152q0 298 490 951q465 480 608 480h8q160 0 160 -144v-8q-11 -230 -64 -272h-8q-24 0 -40 248l-48 16h-16q-188 0 -640 -552q-298 -509 -298 -679v-8l24 -24q276 76 488 256q162 325 326 470q152 135 201 135q4 0 7 -1q44 -11 44 -69q-140 -212 -362 -511 q-88 -109 -88 -152v-48q13 -32 56 -32h112q172 0 331 20h8v-5q0 -137 -427 -167h-16q-224 15 -224 144q-424 -200 -496 -200q-114 0 -136 152z" />
<glyph unicode="B" horiz-adv-x="1373" d="M0 96q0 91 560 1000q105 198 256 264q310 240 464 240h16q160 0 164 -148v-11q0 -143 -94 -285q-98 -148 -318 -324q306 -141 306 -315q0 -35 -12 -71q-74 -217 -355 -331.5t-443 -114.5h-48q-256 48 -256 168l24 24q215 -48 280 -48q181 0 422.5 128t265.5 264 q2 14 2 26q0 110 -194 110q-88 0 -408 -72q-56 0 -56 56q0 128 152 128q66 60 160 88q146 94 224 176q184 216 184 352v24l-32 32h-24q-80 0 -232 -112q-260 -136 -448 -544q-128 -175 -360 -624q-57 -152 -160 -152q-40 20 -40 72z" />
<glyph unicode="C" horiz-adv-x="1399" d="M0 288v24q0 361 872 1072q268 196 416 240h16q80 -60 80 -136q0 -128 -256 -704q0 -62 -128 -88q-56 0 -72 88q91 128 208 568v16h-8q-137 -34 -288 -168q-281 -201 -536 -536q-160 -190 -160 -344q30 -176 176 -176h96q129 0 904 144l120 32q40 -10 40 -24v-16 q-115 -107 -888 -264l-352 -16q-186 0 -240 288z" />
<glyph unicode="D" horiz-adv-x="2048" d="M-11 66q0 41 120 176q740 996 1008 1248l32 8q64 -20 64 -80q0 -49 -248 -376h-16v8l24 80v8q-132 -114 -288 -352q-176 -310 -176 -576v-24q0 -128 95.5 -172t316 -44t220.5 80q-43 148 -43 339q0 93 10 195q31 314 105 498q124 288 262.5 443t358.5 184q24 3 47 3 q180 0 236 -208q40 -150 40 -355q0 -114 -12 -245q-35 -367 -265 -575.5t-316 -256t-239 -126.5l-8 -8v-32l88 -104v-16h-16v-8q-30 0 -168 120h-32q-233 -49 -393 -49q-142 0 -228 39q-180 83 -211 322v32l8 80l-8 8q-58 -42 -161 -178.5t-143 -173.5q-56 0 -64 88z M1205 306q40 -206 40 -240h24q237 80 519 357q281 276 281 678q0 406 -161 485l-40 8h-16q-181 0 -368 -230.5t-233 -490t-46 -343.5v-224z" />
<glyph unicode="E" horiz-adv-x="1403" d="M0 112q26 232 416 584q197 144 232 144v24q-272 0 -272 168q0 131 520 360q5 27 240 104q92 58 208 64q59 0 64 -24v-16q-42 -60 -664 -344q-133 -72 -200 -144v-24h80q246 0 680 104h32q40 -18 40 -80q0 -75 -280 -136q-446 -141 -720 -408q-208 -268 -208 -320l8 -8h56 q81 0 728 248l384 104l56 16l8 -8v-8q-204 -134 -1168 -496l-144 -16q-96 0 -96 112z" />
<glyph unicode="F" horiz-adv-x="1353" d="M6 453q0 78 152 104h8q80 0 584 -168h8q19 15 104 328v48h-56q-240 -72 -312 -72q-88 0 -88 88q0 70 168 88q360 28 360 88q38 145 228 441l-8 8h-8q-50 -53 -464 -160h-8q-40 9 -40 64q0 69 208 112q245 112 592 224h24q45 0 80 -64q0 -61 -144 -144 q-155 -138 -208 -272q-108 -128 -108 -225l24 -8l272 8h80q56 -33 70 -81q0 -29 -454 -63q-92 0 -160 -424l40 -64q0 -29 -104 -64q-214 -328 -392 -328q-144 0 -336 304l-104 152zM174 389q89 -207 232 -304q0 -16 40 -16h56q79 0 200 192v32q-415 96 -472 96h-56z" />
<glyph unicode="G" horiz-adv-x="1584" d="M0 248q0 277 593 698.5t799 421.5q105 0 144 -72v-32q0 -20 -208 -40q-375 -127 -1040 -680q-136 -141 -136 -232v-64q0 -96 168 -96h88q490 0 944 192l8 8v16q0 27 -112 40q-401 -40 -591 -40q-169 0 -169 32q0 139 504 176h24q78 6 145 6q277 0 366 -103q26 -31 26 -64 q0 -106 -265 -239q-603 -168 -952 -168l-56 -8q-280 36 -280 248z" />
<glyph unicode="H" horiz-adv-x="1579" d="M-17 -116q0 70 520 776q385 645 606 871h8l64 -72v-16q-193 -188 -303.5 -375t-110.5 -240v-8q201 0 296 -160l8 -24h24q125 172 171.5 234t362.5 661q45 32 80 32q48 0 88 -80q0 -34 -287 -455t-287 -448l8 -8h8q271 10 371 10q56 0 59 -3q48 -16 48 -32v-16 q0 -79 -534 -111l-32 -8q-49 0 -128 -288l-120 -32q-31 0 -56 72q0 40 80 200v16q0 35 -248 64l-120 72h-8l-272 -360v-8q0 -16 32 -16l8 -8v-8q-218 -280 -288 -280q-48 16 -48 48zM727 612q53 -48 152 -48h56v8q-72 75 -144 80q-64 -10 -64 -32v-8z" />
<glyph unicode="I" horiz-adv-x="1356" d="M0 112q0 97 312 120l152 8q77 0 128 -40h80q160 0 216 112q-60 61 -88 424q0 478 288 720q174 104 272 104h8q206 0 240 -256q0 -403 -496 -1040v-40q83 -93 136 -184l-24 -32h-24q-36 0 -224 136h-16l-256 -88l-120 -16l-272 8q-76 -1 -232 -48h-16q-34 14 -64 112z M920 736q37 -368 80 -368l144 112q136 235 264 504q64 204 64 288l-24 96q-48 32 -96 32h-32q-183 -48 -248 -160q-152 -200 -152 -504z" />
<glyph unicode="J" horiz-adv-x="964" d="M-95 -995q32 313 80.5 470t279.5 466q160 133 160 192q-343 399 -397 701q-20 108 -20 197q0 160 62 259q97 155 371 299q120 72 248 72h8q264 -35 264 -208q0 -109 -248 -808l-112 -384q0 -40 48 -40h32l296 184l16 16h16l24 -24q0 -62 -280 -264v-16q61 -40 80 -80 q-30 -64 -80 -64h-24q-78 56 -112 56h-32q-120 -65 -120 -208q-115 -598 -243.5 -812.5t-220.5 -235.5q-88 0 -88 144zM49 -955l8 -8h8q184 380 232 696h-16q-21 -15 -55.5 -71.5t-89.5 -222.5t-87 -394zM153 1021q0 -307 280 -696l40 -32h16q72 304 184 640l80 224 q48 165 48 272q-21 80 -104 80h-32q-227 0 -512 -336v-152z" />
<glyph unicode="K" horiz-adv-x="1498" d="M0 184q0 34 392 440v24q-72 18 -72 72q62 201 248 320q200 116 200 144q67 163 120 240v16h-8q-355 -136 -424 -136q-36 16 -40 32v24q51 77 512 248q146 96 176 96q80 -54 80 -112l-64 -112q-146 -138 -216 -296h8l144 -32h16q33 0 608 360l88 24q72 -20 72 -40v-24 q-27 -54 -464 -288q-183 -106 -184 -128q64 -122 64 -272v-32q0 -240 -72 -568l24 -8l411 93l8 8h8l24 -8v-8q-114 -106 -515 -261h-40q-65 0 -72 104q56 306 72 536q0 234 -80 328q-301 -132 -464 -312q-84 -112 -272 -312q0 -125 -232 -248q-46 0 -56 88z" />
<glyph unicode="L" horiz-adv-x="1628" d="M10 270q-4 26 -4 49q0 211 282 273l224 16h160q61 0 264 352q136 177 136 224q-672 47 -672 176q24 80 80 80q283 -120 688 -120l224 192q91 64 200 64q184 0 184 -168t-111 -188t-417 -44q-132 -145 -384 -560q-18 0 -24 -40h8q323 -64 544 -176q156 -104 210 -192 q18 -30 18 -54q0 -45 -68 -66h-8q-146 166 -288 208q-307 144 -504 144h-8q-331 -440 -520 -440q-178 17 -214 270zM152 272q0 -59 80 -120h24q89 0 312 264l8 32l-16 16h-160q-232 -45 -240 -103.5t-8 -88.5zM1392 1328h48q94 0 160 48v16l-56 16l-152 -56v-24z" />
<glyph unicode="M" horiz-adv-x="2106" d="M0 192q86 136 152 136l176 128q408 334 491 608l8 136q0 198 -344 304l-24 48q0 75 88 80q213 0 416 -296l16 -104v-8q0 -134 -48 -232q28 0 128 88l288 200l96 24q72 -15 72 -64q0 -66 -112 -272v-16h8l320 184q269 152 296 152q97 0 136 -104q-130 -202 -173 -260.5 t-278 -483.5q-104 -200 -112 -240q0 -36 80 -56l526 50l16 -24v-32q0 -24 -294 -82l-304 -56h-8q-127 0 -168 128q31 213 90 298t345 598v24h-16q-165 -41 -587 -448q-272 -358 -328 -437q-39 -54 -74 -54q-16 0 -30 11q-32 0 -48 40q54 175 347 624q90 176 152 264v8l-8 8 h-8q-101 0 -803 -664q-346 -280 -392 -280q-88 19 -88 72z" />
<glyph unicode="N" horiz-adv-x="1456" d="M0 232q0 15 136 136q353 538 434 839v24h-56l-160 -40h-8q-72 43 -72 80q94 144 360 144h16q73 -49 73 -156q0 -11 -1 -23q-8 -124 -104 -309l8 -8h8q322 432 512 432q128 0 128 -192q0 -195 -194 -991h8l424 120l8 -8v-64q0 -55 -144 -88q-277 -128 -384 -128 q-75 0 -88 112v32q210 620 210 975q-6 40 -24 40h-16q-101 0 -730 -871q-203 -192 -296 -192q-19 0 -48 136z" />
<glyph unicode="O" horiz-adv-x="1481" d="M0 112q0 221 752 1016q297 266 576 336q78 0 96 -264q0 -122 -56 -344l8 -8h24q49 0 368 88h24v-16q-128 -100 -360 -176q-118 -48 -208 -192q-165 -245 -416 -344q-515 -208 -696 -208q-112 32 -112 112zM184 168h8q192 0 608 176q221 137 336 304v24l-184 -40 q-296 26 -296 176v16h-16q-94 -73 -258 -275t-198 -325v-56zM816 848q24 -55 192 -72q224 0 224 104q40 157 40 224v16q0 144 -40 144h-24q-18 -4 -72 -104q-214 0 -320 -312z" />
<glyph unicode="P" horiz-adv-x="1214" d="M0 64q44 58 129.5 233t188 434.5t223.5 522.5q249 430 480 480l160 16q267 0 411 -264q65 -120 65 -238q0 -142 -94 -280q-173 -254 -702 -362h-32q-122 0 -192 96h-24q-237 -358 -321 -522t-212 -180h-8q-41 0 -72 64zM333 494q52 27 232 392q177 306 280 360h32 q18 0 24 -40q-95 -196 -216 -376v-8q86 -80 168 -80q65 0 248 64q263 100 359 250q74 115 74 235q0 35 -6 73q-30 158 -275 234l-80 8q-437 0 -768 -936l-72 -168v-8z" />
<glyph unicode="Q" horiz-adv-x="1417" d="M24 264v8q88 548 896 1258q174 88 264 88q224 -55 224 -296v-8l-8 -136l344 16q112 -8 112 -32q0 -35 -448 -128q-23 -19 -144 -328q-64 -167 -270.5 -335t-465 -269.5t-336.5 -101.5q-152 0 -168 264zM208 160h56q213 0 533 191t443 627v24q0 16 -24 16l-328 -24 q-102 0 -200 120l8 8v16h-8q-187 -145 -404 -486q-131 -208 -131 -345q0 -88 55 -147zM848 1218q0 -72 144 -72h160q128 5 128 40v32q-24 224 -112 224h-40q-50 -58 -152 -88q-95 -71 -128 -128v-8z" />
<glyph unicode="R" horiz-adv-x="1464" d="M-14 118q116 188 360 776q186 401 248 416q241 320 640 320q206 0 248 -256q0 -334 -496 -672q-228 -120 -272 -120v-40q0 -120 656 -352l136 -72v-24l-32 -24q-159 15 -402.5 84.5t-357.5 163.5q-139 76 -248 240q55 128 160 128q256 82 392 184q214 158 278 304 q45 103 46 172q0 30 -8 53q-28 79 -139 87q-17 1 -35 1q-96 0 -204 -37q-128 -44 -394 -372v-16h24q14 0 40 72q39 24 88 24q48 -8 48 -24v-8q0 -24 -72 -128q-40 -104 -200 -296q-163 -235 -280 -528q-89 -162 -144 -168q-80 46 -80 112zM383 750l65 87l66 113v16h-24z" />
<glyph unicode="S" horiz-adv-x="1528" d="M6 137q48 117 304 280q701 426 888 576q0 298 254 483q109 80 224 80q96 0 136 -80q-33 -157 -478 -563l-8 -32q0 -209 36 -377q20 -92 20 -182q0 -74 -14 -148q-30 -163 -370 -277l-80 -16q-92 0 -146 76t-70 196q0 140 120 248l24 8q42 -1 64 -32q-88 -166 -88 -208 q0 -89 80 -128h56q304 41 304 264v24q-58 488 -80 488q-65 -9 -445.5 -277.5t-508 -359.5t-182.5 -91q-29 15 -40 48zM1342 1113h16q197 127 254 251v16h-8q-107 0 -230 -163z" />
<glyph unicode="T" horiz-adv-x="1009" d="M0 56q0 41 92 172t176 250.5t508 737.5q93 168 176 168l40 -24q-220 -398 -364 -604t-305.5 -481t-282.5 -275q-40 11 -40 56zM8 1232q0 114 368 160q1073 280 1728 280h96l40 -8v-24q0 -74 -696 -120q-168 -2 -896 -184q-424 -135 -424 -168q-14 -64 -80 -64 q-136 14 -136 128z" />
<glyph unicode="U" horiz-adv-x="1556" d="M0 120q0 224 733 1245q83 152 184 152q56 0 64 -88v-8q0 -42 -167 -198.5t-518 -742.5q-104 -168 -152 -232q-1 -9 -1 -17q0 -49 54 -49q59 0 181 57q254 119 462 225q316 185 445.5 571t223.5 418q68 0 68 -118q0 -120 -337 -791q-148 -318 -184 -352v-16l16 -16h40 q208 40 531 82h8q48 -8 48 -24v-16q-8 -21 -318.5 -111.5t-372.5 -90.5q-96 33 -96 112q3 78 128 328l-8 8q-569 -356 -928 -408h-24q-80 0 -80 80z" />
<glyph unicode="V" horiz-adv-x="981" d="M8 448q1 469 128 896l24 16q96 -44 96 -88q-104 -381 -104 -656q8 -195 32 -280h8q61 0 360 424q359 527 696 768l120 64q64 -12 64 -64q-190 -120 -531.5 -520.5t-532.5 -693.5q-192 -294 -256 -304q-8 -1 -16 -1q-50 0 -68 63q-20 72 -20 376z" />
<glyph unicode="W" horiz-adv-x="1906" d="M-14 65q41 204 312 592l432 696l56 24q56 0 72 -96q-62 -129 -296 -424l-304 -464q-96 -197 -96 -232h8q219 93 632 456q272 281 315 405q35 100 92 99q14 1 28 -5q77 -30 77 -62t-64 -117l-72 -128q-146 -352 -264 -560h8q261 51 586.5 345t409.5 618q96 266 96 376 q0 85 48 104h24l8 -56q0 -453 -246 -820t-574 -551q-345 -208 -488 -208q-48 18 -48 64q111 327 184 400v24h-16q-549 -488 -856 -592h-8q-35 0 -56 112z" />
<glyph unicode="X" horiz-adv-x="1573" d="M0 56q0 34 120 104l528 424v32q-136 395 -136 720l-32 136q10 72 72 72h24q78 -6 112 -504q43 -171 112 -312h8q113 69 520 528l160 232l64 16q59 0 80 -56q0 -91 -416 -496q-256 -256 -256 -272q112 -257 320 -376l144 -8l184 16l24 -8v-16q0 -59 -288 -96 q-277 0 -440 280q-57 48 -88 48h-8q-96 0 -200 -128q-345 -257 -552 -392h-32q-19 0 -24 56z" />
<glyph unicode="Y" horiz-adv-x="1187" d="M-278 -855q0 540 768 928l272 152q128 321 128 448v16q-31 0 -207.5 -148t-456.5 -292q0 -16 -64 -16q-112 0 -112 144v64q0 436 280 952l24 16h32q14 0 48 -56q-107 -240 -184 -472l-72 -280v-200l24 -16q31 0 272 152q415 266 568 680q61 165 100 165q6 0 12 -5 q73 0 73 -62q0 -26 -13 -63q-44 -126 -148 -467q-236 -854 -576 -1656q-135 -264 -264 -584q-153 -327 -232 -368q-132 82 -248 536l-24 416v16zM-142 -791v-80q0 -557 168 -728q160 400 240 536q347 779 464 1168v24h-16q-477 -286 -584 -416q-264 -246 -264 -472z" />
<glyph unicode="Z" horiz-adv-x="1809" d="M14 127q14 67 226 185q501 460 928 704l232 128v24q-535 -16 -816 -40q-64 32 -64 88v16q0 72 624 72q664 0 664 -88v-32q-33 -77 -408 -200q-37 -32 -224 -104q-211 -93 -864 -672v-8l16 -16h160l1080 48h48l264 -8l24 -8v-8q-7 -59 -135.5 -69.5t-609 -57 t-1119.5 -81.5q-30 44 -30 93q0 17 4 34z" />
<glyph unicode="[" horiz-adv-x="985" d="M-56 -131q208 566 248 723q32 225 64 280q-83 573 -41.5 653t98.5 80l128 -24q233 0 632 136q64 -23 64 -120q0 -100 -376 -120q-358 -34 -368 -120q7 -596 -49 -837l-143 -577l511 30q112 -5 112 -40v-24q0 -42 -584 -112q-54 -22 -184 -32q-112 30 -112 88v16z" />
<glyph unicode="\" horiz-adv-x="1003" d="M18 1590v16q0 22 88 48q61 0 296 -432q586 -1230 586 -1277q-14 -45 -48 -64h-16q-96 117 -124 186.5t-232 534.5t-296 627t-254 361z" />
<glyph unicode="]" horiz-adv-x="1406" d="M-9 -74q0 72 456 72q228 0 416 48q0 29 176 304l320 792q112 216 112 240v8h-96q-264 0 -696 -120q-64 0 -64 112q0 119 592 144q289 22 416 72q116 0 168 -72v-16q0 -34 -176 -248q-160 -260 -305.5 -626t-196 -442t-82.5 -324q-30 -30 -88 -48q-160 40 -456 40h-216 q-253 0 -280 64z" />
<glyph unicode="^" horiz-adv-x="1167" d="M5 883q0 51 256 328q96 112 132.5 211t107.5 101q102 0 120 -160q16 -90 488 -544v-8l-32 -8q-164 24 -408 240q-74 93 -184 192q-18 -2 -384 -392l-32 -24h-32q-24 0 -32 64z" />
<glyph unicode="_" horiz-adv-x="1328" d="M34 -27q0 88 256 88l600 -1h160q200 -40 200 -72v-8q0 -43 -1160 -71q-56 11 -56 32v32z" />
<glyph unicode="`" horiz-adv-x="521" d="M48 1415q0 88 48 88l56 -24q124 -277 168 -312q0 -43 -32 -56h-32q-208 154 -208 304z" />
<glyph unicode="a" horiz-adv-x="978" d="M0 104q0 222 554 597q106 56 184 56h8q88 -5 88 -64q-10 -80 -32 -80q-48 48 -80 48q-60 0 -207 -104t-248.5 -214t-106.5 -175h40q191 66 248 168q120 189 210 189q96 -8 96 -64q0 -48 -130 -205v-40q0 -64 344 -64q99 0 128 -32q-38 -80 -312 -80h-72q-120 0 -240 112 h-8l-168 -96q-120 -56 -160 -56h-16q-120 0 -120 104z" />
<glyph unicode="b" horiz-adv-x="886" d="M0 56q0 123 96 248q54 147 424 632l224 272h16q51 0 96 -64q0 -84 -184 -248q-264 -288 -376 -496l-88 -168l8 -8h8q150 102 464 368l40 8h8q72 -12 72 -64q0 -69 -168 -224q-48 -77 -48 -152q42 -40 144 -40l226 44q32 -12 32 -24q-12 -40 -103 -90t-315 -50 q-103 0 -168 152v8l-192 -112q-85 -40 -120 -40q-30 0 -96 48z" />
<glyph unicode="c" horiz-adv-x="728" d="M36 139q-27 68 -27 134q-1 69 29 134q58 129 186 219q241 144 352 144q80 -31 80 -124q0 -38 -13 -86q-45 -166 -179 -166q-24 6 -24 38q0 53 68 178l-116 -72q-119 -38 -176 -136q-46 -87 -46 -145q0 -113 178 -113h12q112 0 392 40q31 0 56 -32q0 -93 -504 -152 q-213 0 -268 139z" />
<glyph unicode="d" horiz-adv-x="953" d="M0 128q0 149 200 330.5t545 271.5q30 25 103 270q62 133 121 133q10 1 19 -3q27 -10 27 -59q0 -75 -65 -243q-106 -276 -106 -492v-6q0 -150 188 -194l16 -16h8q-22 -64 -80 -64q-120 0 -197.5 84.5t-90.5 195.5q-70 -76 -246 -201t-338 -135q-74 0 -104 128zM181 177 l8 -8v-8q310 117 483 371l-156 -36q-335 -193 -335 -305v-6v-8z" />
<glyph unicode="e" horiz-adv-x="801" d="M-31 60v80q0 59 134 116q179 280 309 403q128 121 259 121h4q87 -28 87 -85v-11q-10 -65 -355 -380q-40 -46 -40 -80v-16q0 -72 88 -72h32q253 0 416 32q51 -21 56 -40v-8q0 -46 -432 -120h-32q-246 0 -312 160l-206 -108zM370 445l85 48l121 148l-156 -114l-23 -23z" />
<glyph unicode="f" horiz-adv-x="629" d="M-625 -1367q0 73 288 600l120 200q0 21 280 520v16q-144 75 -144 136q0 66 96 112l80 -8q32 -28 63 -28q81 0 154 191q235 465 495 741l32 16h32q27 -20 40 -64q-24 -96 -56 -96q-111 -75 -391 -549q-112 -162 -112 -192v-16h16q167 62 263 62q73 0 107 -35 q16 -17 16 -33q0 -59 -234 -98q-300 -79 -300 -159l-8 -8l19 44q128 -192 144 -472q0 -112 -72 -247t-332.5 -376.5t-467.5 -304.5q-56 0 -56 -16q-72 21 -72 64zM-433 -1223h8q26 0 208 136q242 175 349 324.5t107 307.5q-16 260 -88 296h-8q-44 -36 -344 -560 q0 -36 -232 -504z" />
<glyph unicode="g" horiz-adv-x="981" d="M-27 167q53 52 214 52q22 0 46 -1h8q13 1 104 152q303 268 560 288q200 -73 200 -192q0 -110 -176 -224q-61 -45 -280 -128v-8q128 -67 128 -192q0 -197 -472 -648q-182 -216 -232 -216q-53 0 -64 104l184 160q440 455 440 560v24q-33 157 -393 157q-61 0 -131 -4 q-150 44 -150 88q0 14 14 28zM441 242l24 -8q456 45 456 216v24l-16 16h-88q-256 -68 -376 -216v-32z" />
<glyph unicode="h" horiz-adv-x="998" d="M0 72l272 464q363 792 416 792l48 8h8l24 -24v-8l-296 -656q-96 -139 -96 -168v-8h24q106 86 352 160q144 -25 144 -136l-65 -323v-64l8 -8q184 3 224 3l8 -8v-16q-58 -80 -296 -99q-96 38 -96 128v16l49 347h-24q-216 -56 -346 -207t-202 -225q-59 -60 -98 -60 q-9 0 -16 4q-42 16 -42 88z" />
<glyph unicode="i" horiz-adv-x="684" d="M-25 43v88q0 54 221 205l370 391q72 -15 72 -64q0 -71 -180 -311q-51 -68 -52 -107q0 -49 84 -49q81 0 242 46l56 16l8 -8q5 -20 5 -38q-1 -96 -145 -136q-160 -45 -263 -45q-9 1 -15 1q-106 4 -136 174q-206 -155 -259 -171zM670 957q0 83 128 96q56 -6 56 -56v-48 q0 -67 -104 -96q-63 0 -80 104z" />
<glyph unicode="j" horiz-adv-x="510" d="M-594 -1080q0 338 120 568q188 279 528 512q160 79 160 216l120 456q13 32 56 32h8q35 -20 48 -56q-80 -223 -128 -480l8 -8h8l187 76q0 16 42.5 16t85.5 -72v-32l-315 -108q-78 -129 -192 -728q-91 -361 -424 -752l-128 -40q-94 0 -168 264zM-458 -1096v-56 q11 -144 72 -144q116 0 320 392q120 264 192 648l24 160v8h-24q0 -20 -162 -150.5t-296 -289.5q-126 -151 -126 -523v-45zM468 1192q36 80 128 80q82 -40 82 -117q0 -69 -108 -69q-17 0 -38 2h-8q-19 0 -56 104z" />
<glyph unicode="k" horiz-adv-x="1139" d="M-123 95l604 625q168 200 303 389.5t180.5 260t92.5 70.5q56 0 80 -80q0 -27 -144 -184l-296 -448q-112 -216 -112 -240v-8h16q367 304 408 304q85 0 104 -80q-22 -126 -309 -512v-16l8 -8h8l356 54h24q56 -5 56 -24v-8q0 -48 -340 -150q-75 -26 -131 -26 q-144 0 -160 170h-16q-196 -184 -232 -184q-53 0 -96 88q29 45 88 240q48 85 48 112h-8q-381 -377 -468 -377h-40q-20 0 -24 32z" />
<glyph unicode="l" horiz-adv-x="781" d="M-65 79q3 43 196 209l216 376q270 374 472 552l48 8q72 0 72 -64q-60 -217 -552 -792q-80 -82 -80 -120v-40q0 -72 104 -72q93 0 428 61l32 -8v-16q0 -72 -308 -149q-50 -16 -224 -24q-56 0 -200 120h-8q-18 -5 -148 -89q-48 11 -48 48z" />
<glyph unicode="m" horiz-adv-x="1502" d="M0 48v96q0 29 227 301q168 187 168 264q11 88 80 88q45 0 120 -104q367 136 432 136q80 0 96 -104q-56 -102 -56 -128h8q48 14 240 168h8q120 0 120 -136h8l-195 -373l-53 -91q195 38 304 38q84 0 115 -23q0 -56 -180 -106t-322 -50q-120 23 -120 88q0 45 88 152l155 277 h-16q-48 -54 -128 -72q-404 -381 -459 -381q-88 28 -88 88q0 25 283 357l64 120l-8 8q-277 -94 -423 -221.5t-260 -279.5q-107 -160 -176 -160q-32 8 -32 48z" />
<glyph unicode="n" horiz-adv-x="1104" d="M0 72l208 296q129 172 209 340l48 16q88 -16 88 -56l-8 -72q28 0 112 72l136 80l88 24q37 -23 80 -104l-177 -428v-16h16q1 -23 90 -23q96 0 295 27q32 -12 32 -24v-8q-76 -98 -285.5 -135t-299.5 -37q-24 53 -24 112q0 83 129 412h-24q-106 -77 -237.5 -183t-291.5 -325 l-96 -40q-29 0 -88 72z" />
<glyph unicode="o" horiz-adv-x="799" d="M0 112q0 116 432 584q220 152 312 152q135 -48 135 -174q0 -133 -151 -354q-471 -320 -640 -320q-74 0 -88 112zM168 168l16 -16q239 103 304 168v8l-112 88h-16q-160 -130 -192 -248zM520 512q0 -38 88 -48q152 0 152 176l-16 16q-224 -38 -224 -144z" />
<glyph unicode="p" horiz-adv-x="1100" d="M-445 -798q0 114 176.5 361t320.5 528t308 593l48 32q40 0 56 -56h8q252 240 344 240q148 0 168 -216q3 -31 3 -62q0 -213 -160 -444v-8l8 -8h16q213 35 325 53l8 -8v-56q0 -58 -220 -115q-173 -44 -364 -44q-50 0 -102 3q-226 14 -226 121q0 10 2 21q-98 -107 -415 -719 q-75 -94 -120 -208q-73 -48 -128 -48q-56 6 -56 40zM387 306q10 -200 133 -200t219 184q44 0 77 242l8 128q-8 48 -24 48h-32q-73 0 -277 -194v-16q72 -2 72 -24v-8q-9 -33 -160 -112z" />
<glyph unicode="q" horiz-adv-x="965" d="M-345 -955q125 229 176 288q238 414 344 640l24 80h-8q-144 0 -144 120q0 204 576 608q114 64 200 64q88 0 88 -136v-24q0 -47 -56 -129.5t-240 -262.5v-16q120 0 330 77q34 0 72 32h8l24 -24q0 -141 -466 -229l-16 -24v-16l48 -320q0 -253 -148 -399.5t-380 -272.5 q-221 -136 -336 -136h-16q-80 16 -80 80zM-113 -843v-8h8q484 244 584 552v40q-30 352 -80 352q-20 -10 -176 -320zM327 365h72l336 288l8 8v24q-105 -19 -416 -304v-16z" />
<glyph unicode="r" horiz-adv-x="969" d="M-39 109v24q0 66 480 483q112 107 144 232q53 64 96 64q88 -37 88 -56q-16 0 -40 -176v-16q0 -79 128 -176v-24q0 -44 -64 -72q0 -35 -112 -104q-32 -48 -32 -72q27 -80 88 -80h8q185 24 268 38q11 2 20 1q35 0 34 -28q-1 -19 -15 -49q-44 -88 -387 -98q-160 14 -168 156 v17q0 134 120 275v24l-32 80h-24q-524 -475 -552 -475h-16z" />
<glyph unicode="s" horiz-adv-x="855" d="M-35 117q32 74 244 206q50 0 104 120q132 184 244 300q96 99 169 99q13 0 25 -3q78 -19 78 -125v-11q-4 -116 -60 -280t-104 -164v-24h64q56 0 364 71l8 -8v-48q0 -77 -58 -94q-57 -18 -367 -120q-126 -41 -220 -41q-137 0 -207 88v16l-24 24h-32l-124 -78q-70 0 -104 72 zM377 291q42 0 72 -56v-40h32q74 0 193 424l-52 -24q-197 -178 -245 -304z" />
<glyph unicode="t" horiz-adv-x="943" d="M-63 30q-36 16 -36 44q1 27 37 66q72 77 326 316t323 397h-8q-286 -40 -544 -136q-64 24 -64 96q0 80 168 80q616 93 616 128q65 141 168 192h16v8q88 -38 88 -96l-40 -88h8l376 32l16 -24q0 -46 -496 -136q-306 -384 -524 -744l6 -49h24q313 54 646 105q50 -16 56 -40 v-8q0 -19 -91 -69.5t-475 -99.5l-232 -48q-112 16 -112 96q12 72 46 209v8h-8q-268 -239 -290 -239z" />
<glyph unicode="u" horiz-adv-x="1111" d="M42 164q42 156 203.5 378.5t160.5 239.5h16q104 -41 104 -112q0 -36 -246 -350l-16 -72h8q196 83 544 392q51 87 83 93q136 -27 136 -56l-66 -309q-1 -19 -1 -36q0 -205 201 -205q31 0 67 5l16 -24q0 -44 -68 -82q-37 -20 -90 -20q-46 0 -104 15q-126 32 -189 331 q-350 -213 -471.5 -277t-249.5 -75q-52 5 -52 74q-1 36 14 90z" />
<glyph unicode="v" horiz-adv-x="900" d="M33 210q40 190 186.5 371.5t173.5 212.5h48q34 -14 56 -56q0 -38 -200 -280q-92 -176 -109 -241l16 -16q282 157 397 297q138 173 216 200q82 -39 88 -64v-16q0 -28 -297 -419v-16q0 -40 128 -40q148 25 214 25q39 0 49 -9l29 -56q-251 -96 -356 -96q-29 -3 -53 -3 q-129 0 -129 98q0 76 77 211l-297 -252l-140 -75q-103 27 -103 156q0 31 6 68z" />
<glyph unicode="w" horiz-adv-x="1523" d="M0 88q88 258 312 728q0 99 112 128q44 0 72 -72q-35 -147 -125.5 -295.5t-154.5 -288.5v-8h8q236 110 504 424q0 79 120 88q80 -22 80 -48v-16q0 -39 -160 -328l-56 -200l8 -8h8q364 254 568 568l72 24q72 -20 72 -40q0 -134 -112 -272q-68 -126 -112 -280q21 0 270 36 q75 24 112 24h16v-16q-65 -117 -366 -188l-128 -40q-64 0 -72 80l32 192l-8 8q-321 -288 -400 -288h-40q-64 58 -64 160v24l40 192h-8q-23 0 -320 -248q-184 -128 -216 -128h-24q-40 16 -40 88z" />
<glyph unicode="x" horiz-adv-x="1065" d="M-4 40v24q18 0 80 112q246 230 344 272v16l-16 16l-256 -16q-104 19 -104 48q59 104 312 104h48l168 -32q82 0 360 280q58 -4 84 -36q21 -25 20 -56q0 -8 -1 -17q-7 -41 -271 -203q-88 -61 -88 -104l8 -64q-32 -140 -32 -208h16q68 0 483 106l48 -16v-16 q-55 -58 -363 -162q-147 -80 -272 -80q-96 0 -96 56q16 145 64 304l-8 8h-8q-168 -84 -360 -328q-44 -48 -96 -48q-44 13 -64 40z" />
<glyph unicode="y" horiz-adv-x="1113" d="M-201 -453q11 48 24 48q25 0 66 -96t126 -264l120 -56q222 98 448 568l216 520l8 8l-8 8h-8q-618 -272 -696 -272h-24q-48 26 -48 80q0 130 339 564q0 27 80 80h8q53 0 72 -80q-103 -198 -259 -380l-48 -80l8 -8h8q688 256 851 524q120 -21 120 -72q-315 -460 -427 -756 q-103 -256 -287 -522.5t-345 -325.5h-16q-276 0 -328 512z" />
<glyph unicode="z" horiz-adv-x="908" d="M-332 -1243q36 206 856 936q0 54 48 96q64 160 64 200v40q-74 96 -144 96h-32q-117 0 -296 -32q-40 0 -40 72q0 97 192 168q336 211 336 280l-24 16h-32q-92 0 -520 -88h-24l-64 64v8q76 69 552 160l64 8q196 0 224 -160q0 -86 -312 -320v-16q256 -74 256 -256l8 -72h16 q117 142 213 197h16v-104q0 -43 -205.5 -236.5t-319.5 -392.5q-314 -386 -711 -652q-71 -25 -100 -25q-21 0 -21 13z" />
<glyph unicode="{" d="M-17 794q53 120 144 120q92 -16 208 -64l16 16v80l-16 152q-88 228 -88 264q0 100 24 176q115 168 376 168q253 -19 304 -168q-31 -72 -56 -80h-16q-166 96 -248 96q-224 0 -224 -128l16 -104q112 -239 112 -344q0 -237 -160 -288v-8q200 -71 200 -168q-19 -49 -80 -96 q-240 -73 -240 -128q0 -130 392 -304q136 0 136 -72q-5 -96 -88 -96l-80 16q-536 236 -536 448q0 56 72 152q120 79 120 96l-32 40q-256 143 -256 224z" />
<glyph unicode="|" horiz-adv-x="546" d="M198 -203q-19 43 15 942q35 491 91 516q91 12 100 -8l6 -14q-65 -248 -82 -433.5t-14.5 -462t5.5 -351.5t-36 -221l-14 -6q-39 3 -71 38z" />
<glyph unicode="}" horiz-adv-x="1224" d="M187 1577q51 149 304 168q261 0 376 -168q24 -76 24 -176q0 -36 -88 -264l-16 -152v-80l16 -16q116 48 208 64q91 0 144 -120q0 -81 -256 -224l-32 -40q0 -17 120 -96q72 -96 72 -152q0 -212 -536 -448l-80 -16q-83 0 -88 96q0 72 136 72q392 174 392 304q0 55 -240 128 q-61 47 -80 96q0 97 200 168v8q-160 51 -160 288q0 105 112 344l16 104q0 128 -224 128q-82 0 -248 -96h-16q-25 8 -56 80z" />
<glyph unicode="~" horiz-adv-x="1736" d="M30 547q5 53 208 192q300 224 632 224q32 0 136 -248q77 -120 184 -120q210 0 480 96l8 -8v-32q-62 -98 -392 -192l-128 -16h-24q-194 0 -304 248q-43 80 -72 96h-40q-190 0 -576 -256l-64 -24q-32 0 -48 40z" />
<glyph unicode="&#xa1;" horiz-adv-x="672" />
<glyph unicode="&#xa2;" horiz-adv-x="1139" />
<glyph unicode="&#xa3;" />
<glyph unicode="&#xa4;" />
<glyph unicode="&#xa5;" horiz-adv-x="1262" />
<glyph unicode="&#xa6;" />
<glyph unicode="&#xa7;" />
<glyph unicode="&#xa8;" horiz-adv-x="1024" />
<glyph unicode="&#xa9;" horiz-adv-x="1674" />
<glyph unicode="&#xaa;" horiz-adv-x="648" />
<glyph unicode="&#xab;" horiz-adv-x="944" />
<glyph unicode="&#xac;" />
<glyph unicode="&#xad;" horiz-adv-x="1043" d="M4 502q41 120 136 120q204 48 336 48q339 16 504 40l32 -8v-8q0 -101 -584 -160q-56 -24 -344 -88q-40 0 -80 56z" />
<glyph unicode="&#xae;" horiz-adv-x="1674" />
<glyph unicode="&#xaf;" horiz-adv-x="670" />
<glyph unicode="&#xb0;" horiz-adv-x="674" />
<glyph unicode="&#xb1;" />
<glyph unicode="&#xb2;" />
<glyph unicode="&#xb3;" />
<glyph unicode="&#xb4;" horiz-adv-x="1024" />
<glyph unicode="&#xb5;" horiz-adv-x="1180" />
<glyph unicode="&#xb6;" horiz-adv-x="1024" />
<glyph unicode="&#xb7;" horiz-adv-x="508" />
<glyph unicode="&#xb8;" horiz-adv-x="1024" />
<glyph unicode="&#xb9;" />
<glyph unicode="&#xba;" horiz-adv-x="718" />
<glyph unicode="&#xbb;" horiz-adv-x="944" />
<glyph unicode="&#xbc;" horiz-adv-x="1708" />
<glyph unicode="&#xbd;" horiz-adv-x="1964" />
<glyph unicode="&#xbe;" horiz-adv-x="1708" />
<glyph unicode="&#xbf;" horiz-adv-x="748" />
<glyph unicode="&#xc0;" horiz-adv-x="1540" />
<glyph unicode="&#xc1;" horiz-adv-x="1540" />
<glyph unicode="&#xc2;" horiz-adv-x="1540" />
<glyph unicode="&#xc3;" horiz-adv-x="1540" />
<glyph unicode="&#xc4;" horiz-adv-x="1540" />
<glyph unicode="&#xc5;" horiz-adv-x="1540" />
<glyph unicode="&#xc6;" horiz-adv-x="2118" />
<glyph unicode="&#xc7;" horiz-adv-x="1399" />
<glyph unicode="&#xc8;" horiz-adv-x="1151" />
<glyph unicode="&#xc9;" horiz-adv-x="1151" />
<glyph unicode="&#xca;" horiz-adv-x="1151" />
<glyph unicode="&#xcb;" horiz-adv-x="1151" />
<glyph unicode="&#xcc;" horiz-adv-x="657" />
<glyph unicode="&#xcd;" horiz-adv-x="657" />
<glyph unicode="&#xce;" horiz-adv-x="657" />
<glyph unicode="&#xcf;" horiz-adv-x="657" />
<glyph unicode="&#xd0;" horiz-adv-x="1518" />
<glyph unicode="&#xd1;" horiz-adv-x="1554" />
<glyph unicode="&#xd2;" horiz-adv-x="1614" />
<glyph unicode="&#xd3;" horiz-adv-x="1614" />
<glyph unicode="&#xd4;" horiz-adv-x="1614" />
<glyph unicode="&#xd5;" horiz-adv-x="1614" />
<glyph unicode="&#xd6;" horiz-adv-x="1614" />
<glyph unicode="&#xd7;" />
<glyph unicode="&#xd8;" horiz-adv-x="1614" />
<glyph unicode="&#xd9;" horiz-adv-x="1501" />
<glyph unicode="&#xda;" horiz-adv-x="1501" />
<glyph unicode="&#xdb;" horiz-adv-x="1501" />
<glyph unicode="&#xdc;" horiz-adv-x="1501" />
<glyph unicode="&#xdd;" horiz-adv-x="1233" />
<glyph unicode="&#xde;" horiz-adv-x="1120" />
<glyph unicode="&#xdf;" horiz-adv-x="1251" />
<glyph unicode="&#xe0;" horiz-adv-x="922" />
<glyph unicode="&#xe1;" horiz-adv-x="922" />
<glyph unicode="&#xe2;" horiz-adv-x="922" />
<glyph unicode="&#xe3;" horiz-adv-x="922" />
<glyph unicode="&#xe4;" horiz-adv-x="922" />
<glyph unicode="&#xe5;" horiz-adv-x="922" />
<glyph unicode="&#xe6;" horiz-adv-x="1454" />
<glyph unicode="&#xe7;" horiz-adv-x="905" />
<glyph unicode="&#xe8;" horiz-adv-x="909" />
<glyph unicode="&#xe9;" horiz-adv-x="909" />
<glyph unicode="&#xea;" horiz-adv-x="909" />
<glyph unicode="&#xeb;" horiz-adv-x="909" />
<glyph unicode="&#xec;" horiz-adv-x="514" />
<glyph unicode="&#xed;" horiz-adv-x="514" />
<glyph unicode="&#xee;" horiz-adv-x="514" />
<glyph unicode="&#xef;" horiz-adv-x="514" />
<glyph unicode="&#xf0;" horiz-adv-x="1139" />
<glyph unicode="&#xf1;" horiz-adv-x="1108" />
<glyph unicode="&#xf2;" horiz-adv-x="1010" />
<glyph unicode="&#xf3;" horiz-adv-x="1010" />
<glyph unicode="&#xf4;" horiz-adv-x="1010" />
<glyph unicode="&#xf5;" horiz-adv-x="1010" />
<glyph unicode="&#xf6;" horiz-adv-x="1010" />
<glyph unicode="&#xf7;" />
<glyph unicode="&#xf8;" horiz-adv-x="1010" />
<glyph unicode="&#xf9;" horiz-adv-x="1059" />
<glyph unicode="&#xfa;" horiz-adv-x="1059" />
<glyph unicode="&#xfb;" horiz-adv-x="1059" />
<glyph unicode="&#xfc;" horiz-adv-x="1059" />
<glyph unicode="&#xfd;" horiz-adv-x="868" />
<glyph unicode="&#xfe;" horiz-adv-x="1010" />
<glyph unicode="&#xff;" horiz-adv-x="868" />
<glyph unicode="&#x2c6;" horiz-adv-x="1024" />
<glyph unicode="&#x2dc;" horiz-adv-x="1024" />
<glyph unicode="&#x2000;" horiz-adv-x="892" />
<glyph unicode="&#x2001;" horiz-adv-x="1784" />
<glyph unicode="&#x2002;" horiz-adv-x="892" />
<glyph unicode="&#x2003;" horiz-adv-x="1784" />
<glyph unicode="&#x2004;" horiz-adv-x="594" />
<glyph unicode="&#x2005;" horiz-adv-x="446" />
<glyph unicode="&#x2006;" horiz-adv-x="297" />
<glyph unicode="&#x2007;" horiz-adv-x="297" />
<glyph unicode="&#x2008;" horiz-adv-x="223" />
<glyph unicode="&#x2009;" horiz-adv-x="356" />
<glyph unicode="&#x200a;" horiz-adv-x="99" />
<glyph unicode="&#x2010;" horiz-adv-x="1043" d="M4 502q41 120 136 120q204 48 336 48q339 16 504 40l32 -8v-8q0 -101 -584 -160q-56 -24 -344 -88q-40 0 -80 56z" />
<glyph unicode="&#x2011;" horiz-adv-x="1043" d="M4 502q41 120 136 120q204 48 336 48q339 16 504 40l32 -8v-8q0 -101 -584 -160q-56 -24 -344 -88q-40 0 -80 56z" />
<glyph unicode="&#x2012;" horiz-adv-x="1043" d="M4 502q41 120 136 120q204 48 336 48q339 16 504 40l32 -8v-8q0 -101 -584 -160q-56 -24 -344 -88q-40 0 -80 56z" />
<glyph unicode="&#x2013;" horiz-adv-x="1108" />
<glyph unicode="&#x2014;" horiz-adv-x="2048" />
<glyph unicode="&#x2018;" horiz-adv-x="412" d="M45 1165q-14 56 24 104q233 -187 269 -385q0 -18 -56 -32z" />
<glyph unicode="&#x2019;" horiz-adv-x="412" d="M251 843q36 198 269 385q38 -48 24 -104l-237 -313q-56 14 -56 32z" />
<glyph unicode="&#x201a;" horiz-adv-x="557" />
<glyph unicode="&#x201c;" horiz-adv-x="672" d="M-9 1211v24q0 176 112 240h40l24 -24q-56 -103 -56 -312q0 -21 120 -96v-24q0 -25 -88 -48q-106 0 -152 240zM335 1267q0 216 104 216h40q48 -22 48 -96l-32 -136v-56q0 -75 144 -192v-32l-64 -16q-240 130 -240 312z" />
<glyph unicode="&#x201d;" horiz-adv-x="672" d="M-9 971v32q144 117 144 192v56l-32 136q0 74 48 96h40q104 0 104 -216q0 -182 -240 -312zM399 1019v24q120 75 120 96q0 209 -56 312l24 24h40q112 -64 112 -240v-24q-46 -240 -152 -240q-88 23 -88 48z" />
<glyph unicode="&#x201e;" horiz-adv-x="910" />
<glyph unicode="&#x2022;" horiz-adv-x="557" d="M50 756q0 161 330 203q76 -32 76 -89q-88 -228 -190 -228h-13q-203 18 -203 114z" />
<glyph unicode="&#x2026;" horiz-adv-x="1367" d="M184 89q0 101 208 128q48 -20 48 -56q-55 -144 -120 -144h-8q-128 11 -128 72zM588 93q0 101 208 128q48 -20 48 -56q-55 -144 -120 -144h-8q-128 11 -128 72zM1052 89q0 101 208 128q48 -20 48 -56q-55 -144 -120 -144h-8q-128 11 -128 72z" />
<glyph unicode="&#x202f;" horiz-adv-x="356" />
<glyph unicode="&#x2039;" horiz-adv-x="631" />
<glyph unicode="&#x203a;" horiz-adv-x="631" />
<glyph unicode="&#x205f;" horiz-adv-x="446" />
<glyph unicode="&#x20ac;" />
<glyph unicode="&#x2122;" horiz-adv-x="1497" />
<glyph unicode="&#x25fc;" horiz-adv-x="865" d="M0 0v865h865v-865h-865z" />
</font>
</defs>
</svg>
